<?xml version="1.0" encoding="utf-8"?>
<!-- Generator: Adobe Illustrator 20.1.0, SVG Export Plug-In . SVG Version: 6.00 Build 0)  -->
<svg version="1.1" id="Layer_1" xmlns="http://www.w3.org/2000/svg" xmlns:xlink="http://www.w3.org/1999/xlink" x="0px" y="0px"
	 viewBox="0 0 349.8 129.5" style="enable-background:new 0 0 349.8 129.5;" xml:space="preserve">
<style type="text/css">
	.st0{fill:#FFFFFF;}
</style>
<g>
	<path class="st0" d="M74.3,3.5c-37.5-2.9-70.7,9.7-72.2,28c-0.6,6.9,2,11.4,4.8,15.6C6.4,45,4.5,39.7,4.9,36
		c2-18,32.8-28.2,69-25.4c16.9,1.3,32,5.3,43.2,11c1.4,0.6,2.8,1.3,4.2,2c0,0,0,0,0.1,0c0.9,0.4,1.8,0.8,2.7,1.3
		c0.7,0.3,1.3,0.7,2,1.1c4.1,2.3,8,4.9,11.7,7.8C131.5,18.9,106.2,6,74.3,3.5z"/>
	<g>
		<path class="st0" d="M5.9,74c0.8-2.8,1.6-4.7,2.2-5.6c1.8-2.7,3.7-4.8,5.8-6.4c2.1-1.5,3.9-2.5,5.5-3c2.1-0.6,3.9-0.9,5.2-0.9
			c3,0,5.5,0.2,7.4,0.7s3.4,1.2,4.7,2.1c1.8,1.3,3.3,2.6,4.4,3.9c1.1,1.3,2,2.9,2.7,4.7c0.7,1.8,1.1,4,1.1,6.5l-5.4-0.1
			c-1.5,0-4.7-0.1-9.8-0.4c-1.9-0.2-3.2-0.2-3.9-0.2c-0.2,0-2,0-5.2,0.1h-4.2c-0.1,0.5-0.1,0.9-0.1,1.2c0,1.8,0.2,3.6,0.6,5.6
			c0.4,1.9,1,3.7,1.9,5.1c0.8,1.5,1.9,2.7,3.1,3.8c1.2,1.1,2.5,1.8,3.9,2.3l2.8,0.9c2.5,0,4.1-0.1,5-0.2c1.5-0.3,2.9-0.8,4.1-1.3
			c1.2-0.5,2.6-1.4,4.3-2.6c1.2,0.9,2.1,1.6,2.9,2.3c-2.8,3.2-5.8,5.5-8.8,7c-3.1,1.4-6.5,2.2-10.2,2.2c-2.6,0-4.6-0.2-6.2-0.7
			c-2.2-0.6-4.1-1.5-5.9-2.7c-1.7-1.2-3.2-2.8-4.5-4.6C8,91.9,7.1,90,6.5,88.1c-0.8-2.5-1.2-4.5-1.2-6.1C5.3,79,5.5,76.4,5.9,74z
			 M34.1,71.9c0-1.9-0.4-3.6-1.1-5.3c-0.7-1.7-1.7-3-3.1-4c-1.4-0.9-2.9-1.4-4.3-1.4c-2.2,0-4.1,1-5.9,2.9c-1.7,2-2.7,4.6-3,8
			l11,0.1c0.7,0,1.7,0,3-0.1c0.9-0.1,1.6-0.1,2-0.1C33.1,71.9,33.5,71.9,34.1,71.9z"/>
		<path class="st0" d="M89.7,87.4c0.5,0.3,0.9,0.5,1.2,0.6c0.7,0.3,1.3,0.7,1.8,1.2c-0.9,3.3-3,6.2-6.3,8.6
			c-3.4,2.4-7.6,3.6-12.7,3.6c-3.2,0-6.4-0.7-9.6-2.1c-3.2-1.4-5.7-3.2-7.6-5.5C55,92,54,89.9,53.2,87.3c-0.7-2.5-1.1-4.7-1.1-6.5
			c0-2.2,0.5-4.6,1.4-7.3c0.9-2.7,2.4-5.3,4.6-7.7c2.1-2.4,4.8-4.3,8.1-5.8c3.2-1.4,6.9-2.1,11-2.1c5.6,0,9.5,0.9,11.7,2.7
			s3.3,3.6,3.3,5.4s-0.4,3.1-1.3,4.1s-2.1,1.5-3.7,1.5c-1.3,0-2.5-0.4-3.7-1.3c-1.1-0.9-2-2.4-2.8-4.5c-0.6-1.5-1.3-2.6-2.2-3.3
			c-0.9-0.7-2-1-3.2-1c-3,0-5.7,1.3-8.1,4c-2.4,2.7-3.6,6.3-3.6,10.9c0,5.5,1.5,9.9,4.4,13.2c2.9,3.3,6.2,4.9,10,4.9
			c1.8,0,3.4-0.2,4.7-0.6c0.8-0.3,1.9-0.9,3.3-1.9c0.4-0.3,1-1,2-2.1C88.7,88.6,89.4,87.8,89.7,87.4z"/>
		<path class="st0" d="M96.6,97.3c0.5-0.1,2-0.3,4.3-0.6c1-0.1,1.7-0.4,1.9-0.7c0.3-0.5,0.5-1.7,0.5-3.5V89l0.1-3.7v-4.1v-1v-2.5
			l0.1-0.8l0.2-18v-1.4c0-6.2-0.2-10-0.5-11.4c-0.2-0.9-0.7-1.5-1.4-2c-0.7-0.5-2.4-1-5.1-1.4v-1c0-0.5,0-1.1,0.1-1.8l4.1-0.9
			c0.8-0.2,1.6-0.4,2.3-0.6c1.8-0.4,4.1-1.2,6.8-2.5c0.5-0.3,0.9-0.5,1.4-0.7l2.6,0.2l-0.1,29.7c2.9-2.4,5.6-4.1,8-5.1
			s4.9-1.5,7.5-1.5c2.5,0,4.6,0.5,6.5,1.4c1.8,0.9,3.2,2,4.2,3.4c1,1.3,1.7,3,2.1,4.9c0.3,1.3,0.4,3.8,0.4,7.5v3.2v7L142.4,96
			c0.1,0.3,0.3,0.5,0.4,0.6c0.4,0.2,1.3,0.4,2.9,0.7c0.9,0.2,1.6,0.3,2,0.4c0.3,0.5,0.4,0.9,0.4,1.2v0.4c-0.1,0.4-0.1,0.9-0.1,1.6
			l-1.1,0.1c-0.5,0-1.4-0.1-2.9-0.2c-2.7-0.3-5-0.4-6.8-0.4c-1.2,0-2.8,0.1-4.8,0.2c-1.4,0.1-3.2,0.1-5.4,0.1c-0.4,0-0.7,0-1-0.1
			v-1.2l-0.1-0.6c0-0.3,0.1-0.6,0.2-1.1c0.7-0.4,1.6-0.6,2.6-0.7c1-0.1,1.9-0.2,2.8-0.4c0.1-0.6,0.2-1,0.2-1.2l0.2-7.3V75.6
			c0-3.6-0.2-6.1-0.6-7.3c-0.4-1.3-1.2-2.3-2.4-3.1c-1.2-0.8-2.7-1.2-4.5-1.2c-2,0-4,0.5-5.9,1.5s-3.6,2.1-4.9,3.5v8.7
			c0,4.8,0,8.3-0.1,10.7c-0.1,1.4-0.1,2.3-0.1,2.7c0,2.3,0.1,3.9,0.4,4.7c0.1,0.4,0.5,0.8,1.1,1.1c1.2,0.1,2.2,0.2,3,0.2
			s1.4,0.1,1.9,0.2c0.1,0.8,0.1,1.4,0.1,1.7c0,0.5-0.1,1-0.2,1.7l-5.4-0.2c-2-0.1-3.9-0.2-5.5-0.2l-6.8,0.3h-4.8
			c-0.3-0.5-0.7-1.3-1-2.5v-0.8H96.6z"/>
		<path class="st0" d="M194.4,91.1l1.1,0.7c0.3,0.2,0.5,0.5,0.5,0.8v0.2c-0.8,2.9-1.8,5-3.1,6.1s-2.8,1.7-4.7,1.7s-3.5-0.5-4.9-1.6
			s-2.6-3-3.8-5.7c-1.4,2.5-3.3,4.4-5.9,5.7c-2.5,1.3-5.6,1.9-9.3,1.9c-3.4,0-5.8-0.7-7.4-2.2c-1.6-1.4-2.4-3.3-2.4-5.7
			c0-1.1,0.2-2.2,0.7-3.3c0.5-1.1,1.2-2.2,2.3-3.4c1-1.1,2.7-2.3,5.1-3.7c0.4-0.2,1.6-0.8,3.7-1.7l12.1-5c0.1-1.3,0.1-2.5,0.1-3.8
			c0-4.5-0.5-7.5-1.6-9.1c-0.6-1-1.8-1.5-3.4-1.5c-1.6,0-3.1,0.3-4.5,0.9c-1.4,0.6-2.3,1.4-3,2.4c-0.5,0.7-0.8,2.1-1.2,4.1
			c-0.2,1.5-0.4,2.3-0.6,2.5c-0.5,0.6-1.4,1.2-2.6,1.7c-1.3,0.5-2.1,0.9-2.6,1.1c-1.7,0.9-3.1,1.3-4.2,1.3c-0.5-0.4-0.7-1-0.7-1.7
			c0-1.9,0.4-3.5,1.2-4.9c1.2-1.9,2.9-3.8,5.3-5.6c2.3-1.8,4.5-3.1,6.6-3.8c2.8-0.9,6.2-1.4,10.2-1.4c2.6,0,4.8,0.5,6.7,1.5
			s3.1,2.4,3.9,4.3c0.7,1.9,1.1,5.4,1.1,10.4l-0.1,8.2l0.1,6V90c0,1.4,0.2,2.3,0.5,2.9c0.4,0.5,0.8,0.8,1.4,0.8
			c0.3,0,0.7-0.1,0.9-0.3l1.5-2.3H194.4z M178.5,79.5c-1.8,0.6-3.9,1.7-6.2,3.2s-3.9,3-4.8,4.4c-0.6,1.1-1,2.4-1,4
			c0,1.4,0.4,2.6,1.3,3.5c0.8,0.9,1.8,1.4,2.9,1.4c1.8,0,3.3-0.5,4.6-1.6c1.7-1.4,2.7-2.6,3-3.4s0.4-3.2,0.4-7.2
			C178.7,82.4,178.6,81,178.5,79.5z"/>
		<path class="st0" d="M199.1,97.9c0.8-0.4,1.6-0.7,2.3-0.8c1.8-0.3,2.8-0.5,3.1-0.7c0.5-0.3,0.8-0.7,1-1.1c0.2-0.7,0.3-2.1,0.3-4.4
			v-4.3v-3.5l-0.1-5.2v-3.1c0-2.1-0.2-3.8-0.5-5.1c-0.1-0.5-0.5-1-1.2-1.5c-0.9-0.7-2.4-1.3-4.6-1.9v-2.4c0.4-0.1,0.8-0.2,1.1-0.3
			c0.3,0,1.6-0.4,3.9-1c1.8-0.7,2.9-1.1,3.4-1.4c0.2-0.1,0.4-0.2,0.8-0.4c0.4-0.3,0.8-0.7,1.3-1c1-0.7,2.1-1.9,3.5-3.6L216,56
			l-0.1,5.6c-0.1,0.6-0.1,1-0.1,1.3s0,1,0.1,2.3c2.7-2.4,5.1-4,7.3-5c2.9-1.2,5.6-1.8,8.2-1.8c3,0,5.7,0.8,8,2.3s3.8,3.3,4.5,5.4
			c0.7,2,1.1,6.1,1.1,12.2l-0.2,16.2c0,0.8,0.1,1.4,0.4,1.9c0.3,0.2,1.2,0.5,2.7,0.7l2.4,0.5c0.3,0.4,0.4,0.9,0.4,1.6
			c0,0.4,0,0.9,0,1.6L241,100l-2.8,0.1H236l-6.4,0.4H228c0-0.4,0-0.7,0-1c0-0.6,0-1.2,0.1-1.9c0.5-0.1,1.6-0.3,3.4-0.5
			c0.5-0.1,1-0.2,1.6-0.3c0.6-0.3,1-0.5,1.1-0.8c0.3-0.6,0.4-1.6,0.4-3.2c0-2.8,0-4.9,0-6.4v-5.8c0-7-0.4-11.4-1.3-13.1
			c-1.2-2.5-3.1-3.7-5.5-3.7c-1.8,0-3.7,0.5-5.6,1.4c-1.9,0.9-3.9,2.4-6,4.3l-0.1,0.8l0.1,3.1l-0.1,3.3l0.2,8l-0.1,1.2
			c0,5.4,0.2,8.4,0.6,9.1s2,1.5,4.8,2.3c0.1,0.6,0.1,1,0.1,1.2c0,0.4-0.1,1-0.3,1.8c-1,0-1.8,0-2.5,0s-1.7-0.1-3.2-0.3l-5.2-0.1
			c-2.6,0-6.3,0.1-11.2,0.3c-0.1-0.3-0.2-0.7-0.2-1C199,99.2,199,98.7,199.1,97.9z"/>
		<path class="st0" d="M265.9,107.1c-4.4-1.1-7.3-2.4-8.7-4c-1.5-1.5-2.2-3.2-2.2-5c0-1.5,0.4-2.6,1.2-3.4c0.8-0.8,4.3-3,10.6-6.7
			c-3.2-2-5.4-3.8-6.6-5.7c-1.6-2.4-2.3-4.7-2.3-7.1c0-2.1,0.4-4.3,1.3-6.7c1.8-3.4,4.3-5.9,7.4-7.6c3.1-1.7,7.2-2.5,12.2-2.5
			c2,0,3.7,0.1,5.2,0.4c0.7,0.1,1.8,0.5,3.4,1.1l1.8,0.7c1.6,1.1,3.1,2.2,4.3,3.3c2.8-0.6,5-1.1,6.7-1.7c1.2-0.4,2.2-0.5,3.1-0.5
			c0.6,0,1.2,0.3,1.6,0.8c0.4,0.6,0.6,1.9,0.6,4c0,1.8-0.2,3.1-0.7,3.8c-0.5,0.7-1,1.1-1.5,1.1c-0.2,0-0.8-0.2-1.7-0.7
			c-2.2-1-4-1.6-5.3-1.6c0.8,2.3,1.2,4.5,1.2,6.5c0,2.4-0.7,4.7-2.1,6.9c-1.4,2.2-3.3,4-5.6,5.2c-3.3,1.8-6.7,2.7-10,2.7
			c-2.1,0-3.6,0-4.4-0.1c-1.1-0.1-2.7-0.4-4.7-0.9c-2.7,1.6-4.7,2.9-5.8,4c-0.5,0.5-0.8,1.2-0.8,1.9c0,0.7,0.3,1.3,0.8,1.8
			c0.6,0.5,1.5,0.9,2.8,1.1c0.3,0,0.6,0.1,1.1,0.2c1.7,0.1,4,0.2,6.8,0.2c0.4,0,1.5,0,3.4-0.1c0.5,0,1,0,1.4,0
			c7.7,0,13.1,1.3,16.2,3.8s4.6,5.6,4.6,9.2c0,2-0.5,3.9-1.6,5.7c-1.1,1.9-2.5,3.4-4.4,4.6c-1.8,1.2-4.5,2.2-8,3.2
			c-3.5,0.9-7.2,1.4-11.2,1.4c-4.3,0-8.1-0.4-11.6-1.3c-3.4-0.9-6.1-2.3-8-4.2c-1.5-1.5-2.2-3-2.2-4.7c0-1.6,0.6-3.1,1.9-4.3
			C257.4,110.4,260.6,108.8,265.9,107.1z M280.7,122.8c4.8-0.6,8.5-1.9,11.1-4c1.7-1.4,2.5-2.7,2.5-4c0-0.7-0.2-1.4-0.5-2.1
			s-1-1.4-1.9-2.1s-2-1.2-3.1-1.4c-1.6-0.3-3.8-0.5-6.5-0.5l-6-0.1c-5.2,0-8.7,0.7-10.5,2s-2.7,3.1-2.7,5.3c0,1.2,0.5,2.3,1.5,3.5
			c1,1.1,2.7,2,5,2.7c2.4,0.7,4.9,1,7.6,1C278,123,279.2,122.9,280.7,122.8z M278,87.1c2.2,0,4-1,5.5-2.9s2.3-4.9,2.3-8.9
			c0-5.3-0.7-8.9-2.1-10.7c-1.4-1.8-3.3-2.7-5.8-2.7c-0.3,0-1.2,0.1-2.6,0.2c-1.5,0.3-3,1.4-4.2,3.4c-1.3,2-1.9,4.6-1.9,7.9
			c0,0.9,0.1,2.7,0.3,5.3c0.1,1.1,0.3,2.1,0.7,2.9c0.5,1.3,1.1,2.3,1.8,3c0.6,0.7,1.5,1.3,2.6,1.7C275.8,86.9,276.9,87.1,278,87.1z"
			/>
		<path class="st0" d="M309.8,74c0.8-2.8,1.6-4.7,2.2-5.6c1.8-2.7,3.7-4.8,5.8-6.4c2-1.5,3.9-2.5,5.5-3c2.1-0.6,3.9-0.9,5.2-0.9
			c3,0,5.5,0.2,7.4,0.7s3.4,1.2,4.7,2.1c1.8,1.3,3.3,2.6,4.4,3.9c1.1,1.3,2,2.9,2.7,4.7c0.7,1.8,1.1,4,1.1,6.5l-5.4-0.1
			c-1.5,0-4.7-0.1-9.8-0.4c-1.9-0.2-3.2-0.2-3.9-0.2c-0.2,0-2,0-5.2,0.1h-4.2c-0.1,0.5-0.1,0.9-0.1,1.2c0,1.8,0.2,3.6,0.6,5.6
			c0.4,1.9,1,3.7,1.9,5.1c0.8,1.5,1.9,2.7,3.1,3.8c1.2,1.1,2.5,1.8,3.9,2.3l2.8,0.9c2.5,0,4.1-0.1,5-0.2c1.6-0.3,2.9-0.8,4.1-1.3
			s2.6-1.4,4.3-2.6c1.2,0.9,2.1,1.6,2.9,2.3c-2.8,3.2-5.8,5.5-8.8,7c-3.1,1.4-6.5,2.2-10.2,2.2c-2.6,0-4.6-0.2-6.2-0.7
			c-2.2-0.6-4.1-1.5-5.9-2.7c-1.7-1.2-3.2-2.8-4.5-4.6c-1.3-1.8-2.2-3.7-2.8-5.6c-0.8-2.5-1.2-4.5-1.2-6.1
			C309.1,79,309.3,76.4,309.8,74z M337.9,71.9c0-1.9-0.4-3.6-1.1-5.3c-0.7-1.7-1.7-3-3.1-4c-1.4-0.9-2.9-1.4-4.3-1.4
			c-2.2,0-4.1,1-5.9,2.9c-1.7,2-2.7,4.6-3,8l11,0.1c0.7,0,1.7,0,3-0.1c0.9-0.1,1.6-0.1,2-0.1C336.9,71.9,337.3,71.9,337.9,71.9z"/>
	</g>
</g>
</svg>
